<?xml version="1.0" encoding="UTF-8"?>
<!DOCTYPE svg PUBLIC "-//W3C//DTD SVG 1.1//EN" "http://www.w3.org/Graphics/SVG/1.1/DTD/svg11.dtd">
<!-- Creator: CorelDRAW 2018 (64-Bit) -->
<svg xmlns="http://www.w3.org/2000/svg" xml:space="preserve" width="80mm" height="80mm" version="1.1" style="shape-rendering:geometricPrecision; text-rendering:geometricPrecision; image-rendering:optimizeQuality; fill-rule:evenodd; clip-rule:evenodd"
viewBox="0 0 8000 8000"
 xmlns:xlink="http://www.w3.org/1999/xlink">
 <defs>
  <style type="text/css">
   <![CDATA[
    .fil2 {fill:#57573B}
    .fil6 {fill:#A16E27}
    .fil4 {fill:#B0895D}
    .fil3 {fill:#B88F57}
    .fil5 {fill:#C99A58}
    .fil1 {fill:#FEE182}
    .fil0 {fill:#FEFEFE}
    .fil7 {fill:#FEFEFE;fill-rule:nonzero}
   ]]>
  </style>
 </defs>
 <g id="Слой_x0020_1">
  <metadata id="CorelCorpID_0Corel-Layer"/>
  <polygon class="fil0" points="5847.04,62432.97 51002.6,62432.97 51002.6,17277.41 5847.04,17277.41 "/>
  <g id="_2795332283632">
   <ellipse class="fil1" cx="4006.83" cy="3909.83" rx="3593.66" ry="3531.68"/>
   <path class="fil2" d="M1784.65 4565.72c52.14,-29.88 57.03,-60.07 80.84,-66.11 32.27,-8.19 13.22,-5.3 30.95,6.3 -19.01,72.07 -83.03,94.37 -131.77,96.98l38.51 30.06c-100.16,80.57 -19.13,68.07 -164.54,73.13 -77.78,2.7 -124,13.67 -199.45,-17.14 -101.54,-41.48 -217.83,-147.9 -200.67,-350.51l113.95 -98.32c65.71,-37.2 35.88,-12.55 50.04,8.87l45.8 -70.1c18.13,-16.5 35.64,-24.94 55.79,-36.91 67.87,-40.32 330.67,-195.18 362.69,-191.1l-30.89 -0.74c-127.09,3.38 -622.63,349.03 -722.46,453.37 -97.02,101.39 -186.24,261.53 -245.29,419.55 -53.92,144.29 -96.09,481.89 -48.76,672.59 54.03,217.71 245.85,524.38 377.39,610.81 62.89,41.33 137.95,47.01 199.12,82.89 222.6,130.54 704.59,108.83 944.94,74.23 679.48,-97.82 913.02,442.61 1804.75,314.95 380.48,-54.47 1119.31,-141.84 1442.41,-508.15 32.96,-37.37 117.58,-159.25 149.33,-176.5 207.7,391.1 209.49,274.16 366.53,451.93 139.38,38.52 95.04,109.34 405,101.69 23.25,-79.37 -23.68,-46.59 33.98,-61.79 -41.78,-6.89 -17.24,6.67 -30.24,-40.51 2.56,-2.85 6.81,-11.29 8.11,-7.44l30.02 -28.81c-73.06,-8.72 -318.19,-76.26 -349.84,-200.21 -9.15,-35.83 -7.75,-45.82 -6.6,-93.67 15.12,-18.57 15.24,-11.98 27.95,-27.04l26.23 -38.81c98.76,89.28 363,198.18 486.52,86.52 45.02,-40.7 149.26,-165.9 171.82,-220.5l39 -186.28c12.69,-80.75 -5.7,-137.02 -7.69,-220.22 -72.07,-30.46 -93.64,-202.58 -159.05,-291.6 -4.94,-6.73 -27.89,-32.01 -29.1,-33.54 -49.39,23.98 -27.42,68.6 -116.45,-10.58 41.74,-64.94 35.14,-74.29 -8.23,-144.88 -23.89,-38.87 -228.89,-329.16 -260.67,-311.48 -41.81,23.27 13.88,-49.21 -26.49,30.59 40.42,39.22 85.5,107.36 122,157.15 22.43,30.59 47.37,62.22 63.87,85.61 43.9,62.21 42.31,52.12 56.65,109.83 -42.52,-1.99 -45.94,-8.26 -85.75,-47 -2.79,2.58 -8.03,29.63 -34.26,46.6l-17.18 -41.5c-61.45,-141.53 -304.34,-390.6 -366.25,-385.18 21.96,101.29 147.31,143.65 212.18,299.92 -14.27,33.06 -9.21,35.53 -10.63,89.73l-84.81 -24.7c-1.74,-2.12 -5.61,-10.56 -7.33,-12.53 -26.68,-30.55 -10.18,19.22 -53.14,-25.28 -15.36,-15.91 -66.94,-169.29 -87.54,-211.69 -31.84,3.75 -30.48,21.44 -57.04,53.52 -4.4,160.54 63.63,548.24 -56.69,563.73 -17,-52.14 25.67,-291.38 -21.29,-405.64 -13.15,41.16 -15.82,86.39 -20.55,132.25l-15.56 118.9c-12.48,43.05 5.44,5.35 -16.49,41.4 -6.97,-112.36 -3.36,-92.72 -28.03,-109.87 -7.75,50.11 -9.64,102.53 -5.11,163.02 8.13,108.59 34.05,100.09 -29.99,119.53 -12.53,-26.76 -5.82,-0.64 -12.01,-42.19 -7.66,-51.49 -0.66,-96.62 -2.31,-149.35 -44.85,90.94 -89.79,462.81 -162.7,491.33 -46.46,18.17 50.12,11.47 -21.43,-1.62 -1.67,-0.31 -5.15,-1.69 -7.51,-3.49l30.3 -124.86 10.77 -71.53c-119.52,206.15 -24.22,101.96 -153.41,214.24 0.54,-1.03 12.09,16.75 5.8,-39.48 -6.76,-60.35 1.71,-22.33 -15.39,-52.95 -73.85,88.55 -83.09,118.76 -67.25,191.08 -42.38,25.54 -63.69,67.84 -104.1,99.41 29.14,-82.93 46.78,-141.58 55.57,-253.5 -81.15,35.26 -5.34,-9.47 -90.86,183.07 -14.95,33.66 -30.52,51.8 -41.44,73.63 -36.12,72.2 -1.29,69.36 -50.89,71.83 -14.4,-53.63 3.71,-49.93 -18.06,-108.24 -73.3,7.81 -28.25,27.41 -74.76,87.63 -21.89,28.35 -35.27,29.13 -50.66,6.41 31.62,-52.27 39.17,4.46 100.74,-116.94l81.26 -180.53c-51.36,11.32 -106.75,89.77 -134.75,159.04 -0.77,-0.62 -0.27,-5.26 -0.42,-4.12 -6.61,52.83 -2.3,-7.95 -3.48,-9.45 -0.75,-0.95 -3.14,-4.21 -4.12,-5.25 -65.57,-69.69 24.88,-6.85 -21.26,-15.92 -9.23,23.04 -20.73,56.44 -31.63,76.47 -20.3,37.26 -27.75,39.69 -42.23,33.82l-3.52 -96.79 -39.89 95.28c-48.01,11.4 -35.12,-9.33 -50.45,-6.79 -24.78,4.11 -44.98,65.41 -82.9,150.51 -31.53,-83.66 23.3,-163.69 25.39,-170.36 13.88,-44.23 18.71,36.52 2.73,-26.64 -42.81,-86.45 -97.95,120.95 -114.92,184.03 -31.16,-10.72 -28.44,-34.44 -60.08,-13.1 16.17,-41.22 19.76,-62.33 29.5,-122.43 -51.41,24.99 -27.46,17.43 -65.86,77.56 -38.62,-8.59 -77.45,-16.81 -116.36,-9.62 -50.15,9.27 -46.06,30.47 -80.77,58.63 -9.98,-66.02 7.22,-21.41 -34.28,-37.19 -49.89,75.83 -367.78,-39.75 -494.2,-66.78 -105.31,-22.52 -67.27,-102.92 -152.01,-43.75l-6.78 -32.74c-0.48,-3.69 -1.64,-17.57 -1.96,-21.2l-0.9 -20.3c-22.66,22.25 -70.31,57.94 -97.71,69.77 38.66,-61.53 54.03,-36.94 65.98,-131 -77.19,22.48 -99.8,101.41 -192.85,109.21 31.3,-69.38 90.44,-88.4 116.77,-213.55 -39.48,-30.42 -2.94,39.67 -50.26,-20.22 -31.62,-40 14.18,1.32 -13.49,-22.6 -49.37,71.64 -211.2,275.97 -272.29,282.96 20.6,-47.45 68.93,-107.21 94.9,-148.83 26.72,-42.81 72.35,-112.15 83.93,-196.5 -67.91,17.29 -77.34,94.2 -156.64,201.98l-75.63 96.79c-15.32,18.81 -23.03,29.86 -38.67,46.59 -16.47,17.63 -21.03,25.86 -43.08,27.45 13.38,8.79 115.73,-107.2 122.01,-115.35 47.86,-62.08 87.95,-86.19 100.14,-215.07 -58.54,43.97 -55.93,69.89 -96.39,126.13 -0.95,-2.38 -1.36,-10.03 -1.51,-8.16 -0.15,1.89 -1.26,-6.88 -1.47,-8.25 -0.22,-1.43 -1.07,-6.89 -1.33,-8.66 -1.86,-12.56 -2.16,-27.99 -5.33,-37.69 -24.84,12.53 -81.14,77.29 -107.76,105.22 -86.01,90.21 -65.46,53.3 -113.59,98.51 -32.57,30.6 -68.75,83.05 -110.13,102.89 -43.31,20.77 -113.47,21.11 -160.34,29.11 -77.61,13.25 -255.9,53.37 -325.54,37.21 -171.41,-39.79 -220.07,94.11 -293.94,47.44 -26.03,90.18 -37.11,78.79 -104.83,110.32 -93.88,43.71 -73.44,16.9 -153.26,7.65 -63.46,-7.36 -99.38,33.48 -170.59,-7.65 -48.77,-28.18 -58.28,-78.16 -121.25,-94.95 -57.46,-15.31 -108.31,5.6 -151.37,-43.83 -153.71,-176.48 58.64,-397.34 115.17,-423.99 36.94,-17.42 -37.89,2.9 12.47,-3.99 16.88,-2.32 9.73,-1.29 17.48,4.05 -32.86,63.69 -54.99,46.35 -80.83,125.02 35.49,-21.34 4.57,1.42 32.88,-24.6 83.87,-77.08 44.32,-88.32 202.76,-191.79 118.85,-77.62 169.38,-86.58 307.38,-97.08 133.22,-10.15 644.93,-349.87 802.17,-464.87l345.46 -335.92 118.39 -251.03c21.14,-57.05 14.93,-66.45 46.86,-108.09 12.9,-16.84 563.63,-723.36 130.33,68.84 -45.51,83.22 -155.67,-170.45 -283.89,137.11 -15.77,37.84 -45.76,101.77 -78.55,111.21l-29.66 -195.18c32.69,-58.59 3.98,33.37 21.09,-54.37 -13.24,-36.99 -32.59,-218.47 -40.3,-268.36 -22.28,-144.35 -23.38,-226.51 -77.67,-258.56l31.52 389.76c-5.22,-43.1 -12.52,-95.32 -17.85,-140.44 -14.4,-121.77 -9.77,-109.03 -32.65,-122.6 -27.81,55.79 -17.61,140.25 -15.13,214.13 14.33,-72.55 -62.5,-400.86 -67.47,-411.69 -15.89,-34.65 2.68,-14.84 -23.48,-26 -4.58,5.33 -36.3,3.64 -19.96,118.62l7.13 135.42c0.38,131.02 16.44,157.25 -19.53,262.43 -49.38,144.41 -53.58,84.75 -105.84,156.17 -207.52,283.63 -161.07,248.21 -440.45,240.09 -77.94,-2.26 -115.92,21.96 -170.67,-50.19 -67.56,-89.01 -63.83,-43.4 -96.58,-169.21 -47.79,-6.01 -93.66,54.3 -133.78,84.1 -22.97,17.06 -42.95,34.07 -65.78,53.3 -7.21,6.08 -26.09,21.15 -31.22,27.45 -22.62,27.74 -8.16,3.11 -21.33,37.16z"/>
   <path class="fil2" d="M3928.04 4678.84l194.93 0c180.78,0 306.02,-40.36 376.24,-121.05 69.69,-81.22 104.8,-225.85 104.8,-434.93 0,-203.32 -35.63,-347.95 -107.42,-432.84 -71.27,-84.88 -192.84,-127.33 -364.71,-127.33l-203.84 0 0 1116.15zm-726.28 572.21l0 -1277.57 482.98 113.89 -424.44 -348.99 -58.54 -116.44 0 -631.47 878.24 0c222.7,0 388.82,9.96 497.81,29.87 108.99,19.92 203.84,52.93 284.54,99.04 156.68,92.22 274.06,221.66 353.18,388.29 78.6,166.64 117.9,372.05 117.9,615.19 0,256.24 -48.73,471.09 -146.72,645.58 -97.46,174.5 -241.57,303.93 -431.79,388.82 -73.35,34.05 -166.1,58.16 -276.67,72.31 -111.09,14.15 -288.73,21.48 -533.45,21.48l-743.04 0z"/>
   <path class="fil3" d="M1162.26 1751.35c-49.01,64.85 -175.5,232.92 -288.58,427.52 -110.76,190.59 -208.18,406.91 -255.87,553.31 -48.32,148.34 -69.08,159.04 111.42,162.24 455.41,8.12 379.68,43.54 717.96,-240.09 85.18,-71.42 92.02,-11.76 172.52,-156.17 58.64,-105.18 32.44,-131.41 31.82,-262.43l-11.61 -135.42c-26.63,-114.98 25.07,-113.29 32.53,-118.62 42.65,11.16 12.37,-8.65 38.28,26 6.08,8.12 78.06,194.9 103.8,318.35 8.57,41.13 12.01,75.22 6.18,93.35 -1.66,-30.24 -5.42,-62.25 -6.18,-93.35 -1.1,-44.87 4.06,-87.83 30.84,-120.79 37.3,13.57 29.74,0.83 53.21,122.6 8.7,45.12 20.6,97.34 29.1,140.45l-51.38 -389.77c88.5,32.05 90.3,114.21 126.61,258.56 12.56,49.89 44.11,231.37 65.7,268.37 -5.45,17.14 -8.05,27.43 -9.1,33.31 -2.79,15.58 5.28,0.34 0,0 -2.94,-0.19 -9.98,4.22 -25.29,21.05l48.35 195.18c53.45,-9.44 102.32,-73.37 128.04,-111.21 209,-307.56 173.32,-203.63 247.5,-286.84 32.24,-36.16 57.63,-77.68 88.06,-127.32 1.58,-2.58 3.17,-5.18 4.78,-7.8 2.5,-4.08 5.04,-8.22 7.63,-12.41 -4.61,5.6 -6.78,9.58 -7.63,12.41 -2.74,9.13 8.18,6.42 -4.78,7.8 -3.26,0.35 -8.02,0.95 -14.88,2.07 -113.42,18.43 -36.22,9.06 -72.75,-17.52 26.04,-63.74 138.03,-159.73 195.26,-197.44 -6.92,-8.15 -57.88,-37.25 -19.05,-151.24l319.49 -338.15c7,53.45 -3.2,46.16 -6.15,77.15 -0.27,2.86 -0.37,7.37 -0.54,10.29l-0.58 47.16c-2.95,20.68 -11.73,42.14 -20.25,58.48 -39.75,76.27 -45.1,48.75 -109.86,188.53 -39.9,86.14 -76.84,126.3 -126.85,174.14 -72.28,69.14 -75.89,98.02 -111.6,209.6 85.57,-21.01 116.52,-105.75 160.45,-175.16 46.29,-73.14 77,-154.89 128.26,-219.31 76.34,-95.96 56.56,-124.1 111.61,-231.57 37.79,-73.79 66.09,-92.4 82.06,-171.73l26.4 -82.49c66.5,-0.42 158.81,-53.49 239.78,-69.78 55.83,-11.23 104.64,-50.21 157.13,6.9 -58.93,80.21 -48.25,-4.55 -78.32,62.88 98.41,62.26 161.71,-79.73 200.26,-113.89 88.36,-34.97 86.38,51.5 188.65,31.41 82.77,-31.35 -25.87,-16.67 91.97,-48.23 28.4,-7.61 15.08,0.71 48.8,-12.05l53.94 -30.17c-11.05,-120.16 9.27,15.54 -30.79,-64.78 -32.92,-66.02 -2.04,-100.13 -71.45,-183.08 -18.33,-21.91 -42.36,-54.8 -67.08,-87.78 -31.84,-42.46 -64.84,-85.07 -88.36,-104.6 -2.01,4.64 -3.77,7.34 -5.22,8.77 -5.71,5.64 -6.77,-8.12 0,0 1.77,2.13 4.07,5.74 6.96,11.58l86.62 84.25 273.29 265.83c59.5,-18.06 28.62,-89.35 108.61,9.14 25.83,31.81 22.78,32.06 -32.61,38.1 -76.1,8.31 -61.47,-33.32 -142.72,-43.23 65.95,152.44 242.2,48.88 521.57,223.7 75.84,47.46 144.59,75.34 211.89,135.32 2.32,2.07 5.74,5.17 8.03,7.24l57.06 52.56c122.05,107.75 201.53,132.01 342.84,255.33 57.06,49.79 94.99,95.77 161.88,138.03 31.85,20.12 62.32,31.46 95,60.16 46.92,41.21 60.56,48.79 130.36,58 -5.16,-146.27 -107.43,-158.09 -185.77,-300.07l-108.05 -210.66c-24.62,-65.22 -45.45,-50.97 -106.82,-94.2l-66.92 -41.42c-63.62,-30.42 -50.05,-25.5 -96.76,-61.88l-46.19 -31.67c-58.95,-34.92 -114.34,-38 -164.75,-71.69 -140.44,-93.84 -16.39,-55.64 -207.78,-96.06l-48.92 -8.97c-118.56,-48.51 -161.53,-235.64 -325.18,-158.49 -2.26,1.06 -6.69,4.26 -10.44,5.33 -158.71,-126.59 -123.15,-93.4 -273.25,-186.01l-104.25 -109.83c-89.23,-135.57 -64.83,-158.8 -20.92,-190.61 -53.62,-54.65 -15.91,-133.87 -33.53,-213.65 -22.06,-99.86 -53.74,-38.33 -103.95,-39 -448.13,-6.01 -942.88,188.71 -1491.78,484.4 -198.03,106.68 -362.45,236.31 -497.4,353.36 -31.51,27.33 -151.57,128.96 -258.36,241.53 -113.37,119.49 -213.66,250.21 -242,276.89z"/>
   <path class="fil4" d="M3485.46 2800.42c-65.54,22.52 -68.76,47.97 -143.15,16.92 -108.57,-45.31 -28.81,-59.02 -116.03,-196.02l-32.87 -60.78c-9.37,-33.84 -12.23,-118.48 -16.09,-163.93 4.18,-2.42 28.2,-14.14 30.62,-15.64 34.47,-21.24 11.01,-6.05 29.52,-20.8l0.54 -111.7c-112.18,45.73 -107.78,74.07 -238.51,14.91 -10.09,-32.12 -20.33,27.99 8.39,-10.56 15.22,-20.45 12.3,-0.91 26.14,-37.22 -32.45,-16.6 -52.58,-29.04 -83.97,-45.36 -55.77,82.39 1.67,75.03 -105.08,78.82l38.58 -91.86 -155.26 229.45c-73.91,129.03 -76.76,112.32 -97.63,283.43 -7.22,59.25 23.94,241.88 59.02,297.99 41.4,66.21 178.49,100.16 278.36,107.81l-3.61 7.2c0.04,1.79 -0.46,11.88 3.61,22.46 106.92,-15.44 222.1,-71.6 305.4,-126.97 146.04,-97.08 -30.49,87.37 160.2,-103.57 48.61,-48.67 27.73,-17.62 51.82,-74.58z"/>
   <path class="fil5" d="M5903.69 2260.38c-47.75,111.71 -179.49,132.87 -194.27,371.41 -11.54,186.12 -134.91,219.15 -195.19,255.38l-149.39 116.92c-92.29,62.82 -71.32,31.96 -97.78,98.52 139.71,-26.14 -2.09,-42.91 142.28,-58.67 20.45,54 41.71,199.28 18.19,251.9 57.6,-17.89 7.28,-86.48 116.28,-101.15 23.9,54.3 14.79,58.41 14.16,128.08 108.52,57.11 13.75,-49.26 111.4,122.47l154.04 -8.07 30.91 75.5c29.01,76.41 17.63,0.05 18.69,123.46 69.94,15.94 26.5,-8.44 116.38,21.91 55.17,18.63 27.24,11.14 64.86,11.96 4.65,0.1 27.6,-1.35 35.23,-0.24 67.86,9.84 164.66,62.83 268,-79.74 -62.4,-93.7 -41.16,-65.4 -63.69,-188.57 -95.62,-3.1 -131.44,39.37 -145.44,-61.07 -7.2,-51.57 -1.23,-178.52 -0.85,-237.69l-75.66 -31.45c-1.64,-132.43 29.77,-67.48 61.72,-188.64 39.39,-11.65 -12.75,-12.42 19.2,4.62 31.49,16.81 -12.15,17.35 10.85,11.1 13.16,-30.83 19.14,-61.34 17.41,-110.04 -67.1,-29.14 -103.63,-24.74 -118.74,-138.06 135.36,43.29 68.06,16.41 153.42,26.51 63.73,7.54 -0.99,-1.27 35.36,8.97 0.16,0.04 44.07,32.67 109.96,-6.26 158.8,-93.81 128.62,-516.27 -35.37,-629.43 -54.54,-37.64 -22.53,7.24 -46.75,-48.91 -2.56,-5.95 -12.84,-55.9 -18.4,-72.66 -18.27,-55.1 -26.6,-55.56 -51.89,-71.58 11.59,132.52 -39.37,140.12 -58.65,188.55 -21.54,54.06 16.94,52.85 -43.36,162.09 -54.95,99.54 -22.4,81.42 -45.29,193.41 -12.53,61.29 -32.81,138.44 -65.33,159.36 -41.53,-85.43 21.47,-81.42 -19.41,-146.38 -35.24,-55.99 8.68,47.9 -30.44,-34.34 43.08,-123.21 112,-160.83 146.56,-255.54 -80.95,47.54 -72.32,98.82 -189,136.37z"/>
   <path class="fil6" d="M6081.11 4188.11c-55.14,-44.9 -23.5,-83.39 -30.63,-169.25 -60.79,77.99 -3.97,84.93 -95.13,110 -16.81,-25.21 -11.66,-6.24 -18.09,-43.76 -3.13,-18.28 -0.58,-42.1 0.89,-61.47l-121.1 -28.57c-39.37,57.3 -121.06,119.54 -142.86,184.01 146.09,144.33 109.93,3.25 310.61,81.51l138.01 19.33c173.89,262.19 138.95,120.01 272.71,90.56 24.68,17.48 32.35,39.54 65.17,50.82 140.44,48.26 84.42,-86.63 182.85,-32.58 0.46,0.26 50.57,56.41 57.28,65.9 114.87,9.09 138.03,-29.35 182.19,22.04 1.88,2.19 4.25,6.27 5.93,8.72 33.75,49.41 13.35,95.85 87.15,94.3 136.48,-2.87 42.69,-120.64 54.73,-164.92l40.67 -141.63c36.91,132.65 -33.43,250.35 141.48,272.35l16.22 -19.64c107.08,-137.9 11.29,-292.63 -45.31,-421.33 -35.79,-81.4 -117.84,-221.45 -207.84,-226.72 -71.95,-4.21 -40.34,27.48 -137.62,30.68 -13.57,-27.1 -21.62,-46.72 -34.17,-77.8 -54.73,-4.76 -18.8,-7.55 -55.91,10.75 -58.51,28.86 -13.26,41.54 -17.47,155.06 -180.14,7.84 -50.67,24.74 -164.23,42.96 -6.14,-139.8 -21.32,-189.93 -144.59,-215.55l-5.15 248.71c-134.58,-4.78 -52.9,-26.05 -137.09,-47.61 -7.17,66.78 12.96,121.06 -25.78,174.62 -121.39,-76.4 -12.15,-315.33 -47.16,-373.77 -54.38,21.88 -63.13,285.28 -86.83,327.34 -24.57,43.63 9.27,15.68 -38.93,34.94z"/>
   <path class="fil7" d="M3694.32 4467.85l194.93 0c180.79,0 306.03,-40.35 376.24,-121.05 69.7,-81.22 104.81,-225.85 104.81,-434.93 0,-203.31 -35.64,-347.94 -107.43,-432.83 -71.26,-84.89 -192.83,-127.33 -364.71,-127.33l-203.84 0 0 1116.14zm-726.28 572.22l0 -1190.41 554.76 130.81 -424.45 -348.99 -130.31 -259.21 0 -592.78 878.24 0c222.71,0 388.82,9.95 497.81,29.87 109,19.91 203.85,52.92 284.54,99.03 156.68,92.23 274.06,221.66 353.18,388.3 78.6,166.63 117.91,372.04 117.91,615.18 0,256.25 -48.73,471.09 -146.73,645.58 -97.46,174.5 -241.56,303.93 -431.78,388.82 -73.36,34.06 -166.11,58.17 -276.68,72.32 -111.09,14.14 -288.73,21.48 -533.44,21.48l-743.05 0z"/>
  </g>
 </g>
</svg>
